<svg version="1" xmlns="http://www.w3.org/2000/svg" width="348" height="348" viewBox="0 0 261.000000 261.000000"><path d="M121.9 1C105.4 3.9 95 15.7 95 31.5c0 4.8 2.7 15.6 8.4 33.7 1.3 4.3 2.3 7.8 2.1 7.8-.2 0-3.8-6.5-8.1-14.5-12.7-23.6-20-30-34.4-29.9-6 0-8.6.5-13 2.7-10.6 5.1-18.4 13.6-22.1 24.4-3.3 9.6-2.1 17.6 3.7 25.5 4.5 6.3 9.9 10.1 27.9 19.9 8.3 4.4 14.3 7.9 13.5 7.6-.8-.2-6.7-2-13-4-18.9-5.9-24-6.9-31-6.5-7.9.5-13.2 2.9-18.7 8.6-6.3 6.5-8.7 13.5-8.8 25.7 0 8.9.3 10.7 2.9 16.2 3.3 7.3 10.4 14.4 16.2 16.3 8.5 2.9 20.1 1.3 43.2-6.1 5.3-1.8 10.4-3.4 11.2-3.6.8-.3-4.3 2.6-11.5 6.4-21.2 11.3-27.8 16.2-31.8 23.7-3.3 6.2-3.1 19.1.4 26.6 8.6 18.2 30.1 28 45.3 20.6 9-4.4 14.3-11.4 26.1-34.4 2.6-5.1 4.9-9.1 5.1-8.9.2.2-1.1 5.3-3 11.3-6.2 19.7-6.9 22.8-7 29.4 0 3.6.6 8.3 1.3 10.4 1.8 5.1 9.3 13.2 15.1 16.1 17.6 8.9 40.8 2.8 49.3-13 1.8-3.3 2.2-5.7 2.2-13.5 0-8.5-.5-11.1-4.8-24.9-2.7-8.4-4.6-15.5-4.4-15.7.2-.3 4 6.1 8.3 14.2 5.3 9.9 9.5 16.4 12.9 19.9 12.8 13.2 30.8 12.2 45.5-2.5 10.5-10.5 14.2-22.8 10.5-34.2-3-8.9-10.9-15.7-29.7-25.7-8.7-4.5-15.8-8.4-15.8-8.5 0-.2 7.3 2 16.3 4.7 8.9 2.7 19.1 5.1 22.8 5.4 13.5 1.1 23.2-4.4 29.1-16.5 3.1-6.3 3.3-7.2 3.3-17.7 0-9.8-.3-11.6-2.6-16.5-3.2-6.8-8.8-12.6-14.8-15.4-3.6-1.6-6.4-2.1-12.6-2-7.8.1-11.2 1-40.4 10.1-1.9.6 4.2-3 18.4-11 16.1-8.9 22-15.2 24.4-25.8 3-13.5-6.9-30.8-22.1-38.4-6.1-3-8-3.5-14.2-3.5-14.6 0-21.6 6.2-34.4 30.3-4.6 8.7-8.5 15.7-8.6 15.7-.2 0 1.9-7.3 4.6-16.3 2.6-8.9 5.1-18.5 5.4-21.3 1.7-13.6-7-27.1-20.4-31.8C138 .7 127.6 0 121.9 1zm16.4 19.4c1.8.7 4 2.3 5.1 3.4 3.1 3.5 1.7 12.9-4.9 34.2-3.1 10.2-6.4 20.7-7.2 23.4-.8 2.7-1.8 4.5-2.3 4-1.5-1.7-16-50.9-16-54.4.1-7.8 5.5-11.9 15.8-12 3.4 0 7.7.6 9.5 1.4zm67.3 26.7c5.2 3.6 9.4 10.4 9.4 15.3 0 4.4-1.7 7.1-6.5 10.3-4.8 3.2-46.7 25.4-47.1 25-.3-.2 5-10.7 11.6-23.3 14.3-27 17.4-30.9 24.6-30.1 2.4.2 6 1.5 8 2.8zm-138.3.4c1.8.9 4.4 3.2 5.8 5.3 4 5.6 25.2 46.2 24.6 46.9-.7.6-41.3-20.7-46.9-24.6-2-1.4-4.5-4-5.4-5.8-1.5-2.7-1.6-3.7-.5-7.3 1.5-5.2 7.4-11.8 12.6-14.1 4.9-2.3 5.9-2.3 9.8-.4zm71.4 57c6.5 1.9 13.9 8.5 16.9 15 8.7 18.5-6.9 40.3-27.2 38.2-14.4-1.5-24.3-12.5-24.4-27 0-13 6.8-22.3 19.3-26.3 5.6-1.7 9.3-1.7 15.4.1zm96.9 9c2.6 1.1 4 2.6 5.6 6.2 1.9 4.4 2 5.5 1 12.3-.9 6.5-1.5 7.8-4.3 10.3-3 2.7-3.6 2.9-8.8 2.3-4.9-.6-49.5-13.6-52.9-15.5-1.6-.9 49-16.8 54.1-17 1-.1 3.3.6 5.3 1.4zM61.9 124.1c13 3.9 24 7.5 24.4 7.9.4.3-10.4 4.1-24.1 8.3-28.6 8.8-34.1 9.6-38.6 5.1-6.6-6.7-5.7-22.6 1.5-27.8 3.7-2.7 10.6-1.5 36.8 6.5zM192 175c20.4 10.8 22.5 12.2 24.5 16 2 3.8 1.9 6.3-.4 10.8-3.9 7.6-10.7 12.5-17.5 12.5-3.4 0-4.6-.6-7.6-4-3.3-3.8-27-46.9-27-49.2 0-.6 2.4.2 5.3 1.8 2.8 1.6 13.1 7 22.7 12.1zm-91-11.4c0 1.1-21.4 41-24.6 46-5 7.5-10 9.2-17.2 5.5C52.4 211.6 47 204 47 197.9c0-5.4 6.2-10.1 30.5-23 21.7-11.6 23.5-12.4 23.5-11.3zm40.3 36.7c4.2 13.8 7.7 26.9 7.7 29 0 8.5-5.3 12.7-15.9 12.7-11 0-16.1-3.7-16.1-12 0-4.4 14.6-55 15.9-55 .3 0 4.1 11.4 8.4 25.3z"/></svg>