<svg width="586" height="334" viewBox="0 0 586 334" fill="none" xmlns="http://www.w3.org/2000/svg">
<g clip-path="url(#clip0)">
<path d="M56.8138 14.1975C57.2685 9.65081 61.3605 6.01346 65.4525 6.01346H77.2738L215.942 202.424H216.398L240.948 19.1988C241.403 14.6535 245.039 10.5601 249.587 10.5601H293.688C297.78 10.5601 300.963 14.6535 300.51 19.1988L257.315 325.18C256.86 329.727 252.768 333.364 248.676 333.364L236.4 333.364L98.1871 131.044H97.7338L73.1818 320.179C72.7271 324.725 68.6352 328.817 64.0898 328.817H20.4405C16.8045 328.817 13.6231 325.18 14.0778 321.088L56.8138 14.1975Z" fill="#EFEB4F"/>
<path d="M409.159 175.6L338.234 21.4717C335.504 15.5624 339.596 10.5611 345.963 10.5611H388.699C393.7 10.5611 395.519 12.3797 397.338 16.9264L445.076 121.496L521.458 14.6531C522.82 12.8344 525.096 10.5611 528.734 10.5611L578.746 10.5611C585.564 10.5611 586.927 16.4704 582.838 22.3811L468.263 175.145L448.258 320.18C447.803 324.725 443.258 328.818 439.166 328.818H395.064C390.518 328.818 388.246 324.725 388.699 320.18L409.159 175.6Z" fill="#EFEB4F"/>
<path d="M71.9425 252.259C70.9878 253.649 70.0038 255.018 68.9705 256.355C67.9105 257.917 68.6265 252.317 67.5798 253.887L59.1638 312.327C58.8518 315.43 55.9451 318.257 53.0625 318.257H9.41448C8.59315 318.257 7.74648 317.835 7.08781 317.098C6.29315 316.211 5.91181 315.033 6.02915 313.951L38.5158 80.6606C38.0731 81.1006 37.6305 81.5392 37.1798 81.9659C35.4105 83.6485 33.4558 85.2032 31.8038 86.9966C31.6705 87.9392 31.4452 88.8699 31.1718 89.7925L0.0611495 313.203C-0.256184 316.067 0.671817 318.949 2.60648 321.11C4.40382 323.119 6.88648 324.271 9.41448 324.271H53.0625C58.9985 324.271 64.5331 319.075 65.1371 313.013L72.5585 255.061C72.1145 254.865 71.8851 253.002 71.9425 252.259Z" fill="#231F20"/>
<path d="M264.819 198.324C262.814 200.23 261.04 202.35 259.232 204.436L243.296 317.328C242.983 320.462 240.056 322.802 237.65 322.802H226.962L149.932 210.046C148.056 211.01 145.778 211.505 143.622 211.47L222.892 327.506C223.451 328.326 224.382 328.818 225.374 328.818H237.65C243.463 328.818 248.68 323.932 249.266 318.046L266.359 196.953C265.822 197.42 265.292 197.873 264.819 198.324Z" fill="#231F20"/>
<path d="M289.666 3.2C287.798 1.13734 285.31 0 282.661 0L238.56 0C232.674 0 227.565 4.984 226.942 11.2467L216.14 91.856C218.672 87.5627 221.201 83.272 223.916 79.1L232.914 11.944C233.241 8.67467 235.774 6.01467 238.56 6.01467L282.661 6.01467C283.914 6.01467 284.793 6.78 285.206 7.236C286.162 8.292 286.641 9.82933 286.505 11.2253L278.085 70.8707C280.053 68.5587 282.382 66.5587 284.945 65.28L292.474 11.944C292.797 8.716 291.773 5.52934 289.666 3.2Z" fill="#231F20"/>
<path d="M451.528 186.968L434.24 312.328C433.924 315.466 430.566 318.256 428.138 318.256H384.038C383.069 318.256 382.321 317.952 381.754 317.327C380.892 316.375 380.484 314.728 380.65 313.047L395.237 209.968C394.47 210.016 393.706 210.05 392.95 209.996C391.625 209.904 390.416 209.635 389.277 209.167L374.681 312.328C374.329 315.844 375.282 319.139 377.294 321.363C379.018 323.266 381.349 324.272 384.038 324.272H428.138C433.869 324.272 439.629 318.864 440.21 313.038L458.441 180.867C456.277 183.094 453.658 185.024 451.528 186.968Z" fill="#231F20"/>
<path d="M576.169 4.44933C575.298 2.78799 573.042 0 567.718 0H517.707C513.914 0 510.657 1.78267 507.985 5.34933L434.627 107.964L389.102 8.25465C387.065 3.15865 384.441 0 377.673 0H334.937C330.635 0 326.867 1.87466 324.859 5.01466C322.986 7.944 322.846 11.648 324.475 15.1747L388.503 154.315C389.155 153.201 389.798 152.084 390.487 150.988C391.043 150.103 391.689 149.195 392.341 148.268L329.935 12.6573C329.161 10.9787 329.158 9.45599 329.926 8.25465C330.823 6.85332 332.697 6.01466 334.937 6.01466H377.673C381.083 6.01466 382.013 6.72532 383.575 10.6213L431.314 115.191C431.758 116.167 432.693 116.832 433.759 116.936C434.849 117.043 435.874 116.564 436.497 115.692L512.838 8.90266C514.314 6.932 515.861 6.01466 517.707 6.01466H567.718C568.85 6.01466 570.309 6.22666 570.841 7.24266C571.391 8.29066 571.139 10.5133 569.405 13.024C569.257 13.2213 569.109 13.4187 568.961 13.6147C568.499 14.2293 568.038 14.8453 567.577 15.46C566.827 16.46 566.078 17.4587 565.329 18.4587L562.294 22.504C561.046 24.168 559.799 25.8307 558.551 27.4933C557.094 29.4373 555.637 31.38 554.179 33.3227C552.538 35.5107 550.897 37.7 549.255 39.888C547.457 42.2867 545.658 44.6853 543.858 47.084C541.927 49.6587 539.997 52.2333 538.066 54.808C536.03 57.5227 533.993 60.2387 531.957 62.9533C529.841 65.776 527.723 68.5973 525.607 71.4187C519.551 79.4933 513.131 87.4427 507.045 95.5587C499.322 105.783 492.105 116.2 484.541 126.551C478.414 134.935 472.562 143.344 466.435 151.728C461.901 157.935 455.005 168.756 449.269 175.284C447.537 177.256 452.105 176.704 452.839 179.145C452.743 178.828 454.323 177.837 454.667 177.376C458.77 171.867 464.345 164.001 468.433 158.471C474.485 150.281 480.537 142.091 486.589 133.9C488.281 132.208 489.601 129.825 491.025 127.897C492.565 125.813 494.105 123.729 495.645 121.645C497.673 118.901 499.695 116.152 501.727 113.411C503.43 111.113 505.145 108.823 506.854 106.529C512.933 98.368 519.011 90.208 525.09 82.0493C530.481 74.8133 535.957 67.6427 541.361 60.436C545.325 55.1507 549.29 49.864 553.254 44.5773C556.549 40.1853 559.843 35.7933 563.137 31.4013C565.517 28.2267 567.898 25.0533 570.278 21.8787C571.502 20.248 572.726 18.616 573.95 16.984C574.061 16.836 574.178 16.692 574.283 16.5387C577.213 12.3067 577.917 7.78666 576.169 4.44933Z" fill="#231F20"/>
<path d="M133.911 170.432C132.746 170.665 132.044 171.832 131.11 172.764L128.779 175.562L123.182 182.093C115.626 190.424 107.412 198.733 98.3018 205.593C96.2885 209.072 94.1312 212.464 92.1165 215.937L92.1631 215.91C95.1938 214.045 98.2272 212.18 101.024 210.08C111.986 201.917 121.318 192.122 130.178 181.86C132.044 179.993 133.678 178.128 135.31 176.029C136.008 175.097 136.94 174.396 136.94 172.997C136.94 171.364 135.543 170.198 133.911 170.432Z" fill="#231F20"/>
<path d="M133.707 98.6193C133.31 98.8313 132.93 99.0794 132.575 99.3434C131.439 100.186 130.792 101.373 130.34 102.694C125.267 117.538 117.584 130.083 109.19 142.91C100.791 155.738 91.9309 168.099 81.4349 179.294C77.0015 183.959 72.3389 188.623 67.2082 192.589C63.2429 195.621 58.8109 198.653 54.1469 200.286C50.6495 201.451 45.2842 202.15 42.4855 199.351C40.8522 197.719 40.6189 195.154 40.6189 192.822C40.6189 190.023 41.0855 187.225 41.7855 184.425C44.1189 174.163 48.3162 164.601 52.2802 155.038C56.9455 143.611 61.8442 132.182 66.2749 120.754C70.9375 109.326 75.6029 97.6647 78.8682 85.77C79.5695 82.9714 80.0362 79.9393 78.8682 77.374C77.9362 75.2753 76.0695 73.642 74.2055 72.4767C68.8402 69.91 62.3109 70.3767 56.7122 71.542C49.9495 72.7087 42.9522 75.2753 37.5882 79.2407C35.4869 81.106 33.3895 83.2047 32.2242 85.77C31.5255 87.8687 31.0575 92.0673 34.5549 91.6007C36.1882 91.3687 36.8882 90.202 36.8882 88.802C36.8882 87.8687 37.5882 86.7033 38.2882 86.0033C40.3855 83.438 43.4202 81.5713 46.2162 80.4047C52.2802 77.6073 59.0429 75.7407 65.8082 75.974C67.9082 76.2073 70.4722 76.442 72.3389 77.6073C74.6709 79.006 74.6709 81.3393 73.9722 83.6713C72.5709 88.802 70.9375 93.6993 69.0735 98.598C61.3775 120.521 51.8149 141.978 43.1869 163.435C40.6189 169.731 38.2882 176.262 36.6549 182.793C35.7229 186.991 35.0215 191.423 35.4869 195.621C36.1882 200.518 38.9869 204.483 43.6522 205.882C47.1482 206.815 50.8815 206.582 54.1469 205.649C62.7762 203.317 70.2389 197.254 76.5362 191.423C84.0002 184.658 90.5295 176.962 96.8269 169.033C107.088 156.205 115.952 142.445 124.58 128.217C118.75 142.211 112.686 155.971 106.388 169.731C101.024 181.161 95.6615 192.354 89.3629 203.317L84.9842 210.745C83.5162 213.654 81.8562 216.471 80.0669 219.267L77.0015 224.307C72.8042 231.303 68.6069 238.067 63.9415 244.831C59.7442 250.662 55.0789 256.259 49.7162 261.157C45.9829 264.423 38.7549 267.921 34.3215 263.955C31.9909 261.623 32.6909 258.125 33.6229 255.561C34.7882 252.295 36.8882 249.497 39.2202 247.163C43.6522 242.266 49.4829 239.001 55.3149 235.735C57.0669 234.742 58.8682 233.774 60.6695 232.809C58.4495 232.597 56.2202 232.651 53.9762 233.186C50.9309 233.911 48.1015 235.397 45.1442 236.403C44.7055 236.551 46.4549 235.229 46.1362 235.09C42.3762 237.505 36.6962 241.557 33.8562 245.065C30.1242 249.73 26.1602 256.493 27.7922 262.79C29.4229 268.854 35.4869 271.419 41.3175 270.719C48.3162 269.786 53.4455 265.355 57.8775 260.457C63.0095 255.093 67.2082 249.263 71.4042 243.198C75.6029 236.901 79.5695 230.371 83.5335 223.607C84.6655 221.719 85.7082 219.787 86.8642 217.918C87.8442 216.333 88.8442 214.783 89.7202 213.143C90.2242 212.199 90.7282 211.257 91.2309 210.314C95.8495 201.662 100.734 193.191 105.09 184.394C109.5 175.486 113.668 166.459 117.708 157.378C122.086 147.538 125.888 137.538 129.168 127.282C130.402 123.423 136.328 109.163 137.412 105.771C138.546 102.307 138.944 100.91 138.935 100.158C138.916 98.8407 137.918 98.1234 136.758 97.9594C135.694 97.81 134.65 98.1167 133.707 98.6193Z" fill="#231F20"/>
<path d="M148.84 154.106C144.409 159.004 140.912 164.601 138.113 170.665C147.674 168.332 158.404 164.601 165.166 157.372C167.033 155.505 168.666 153.173 169.133 150.606C169.598 146.41 165.633 145.477 162.134 145.942C157.005 146.41 152.34 150.374 148.84 154.106ZM184.29 176.729L178.693 183.026C175.43 186.524 172.162 189.79 168.432 193.054C160.969 199.352 151.174 205.882 140.912 204.717C136.013 204.017 131.816 201.45 129.716 196.786C127.385 191.422 128.084 185.126 129.249 179.528C132.049 167.866 138.578 156.438 147.441 148.276C151.174 144.777 155.605 141.745 160.501 140.812C165.866 139.878 172.162 141.278 174.029 146.876C176.362 155.273 168.432 162.501 162.368 166.7C157.005 169.965 151.408 172.298 145.577 174.162C143.71 174.864 141.844 175.329 139.978 175.796L137.18 176.496C136.712 176.496 136.246 176.729 135.78 176.729C135.546 176.729 135.546 177.662 135.313 177.662C134.148 181.393 133.449 185.358 133.449 189.324C133.682 191.889 134.148 194.921 136.013 197.021C137.646 198.418 139.746 199.352 141.844 199.352C146.276 199.818 150.708 198.186 154.67 196.32C160.036 193.288 164.933 189.324 169.598 184.892C172.396 182.328 174.964 179.294 177.528 176.496L181.726 171.364C182.658 170.198 184.29 169.965 185.458 170.898C187.557 172.764 185.458 175.097 184.29 176.729Z" fill="#231F20"/>
<path d="M244.234 77.1408C243.535 76.2088 242.136 76.4421 241.202 76.6741C236.771 78.5395 233.738 83.4381 231.407 87.4021C228.608 91.6008 226.275 96.2648 224.178 100.93C220.678 107.694 217.646 114.457 214.847 121.221L207.851 138.713C215.08 129.15 222.308 119.589 229.074 110.026C234.203 102.562 239.568 95.0995 243.535 86.9368C244.7 84.3701 246.331 79.7061 244.234 77.1408ZM249.132 86.9368C247.732 90.9008 245.399 94.6328 243.302 98.1315C237.936 106.994 231.872 115.39 225.576 123.786C217.879 134.282 209.948 144.543 202.02 154.806C201.32 155.505 200.855 156.205 200.388 157.138L199.454 159.937L197.355 165.533C195.956 169.266 194.791 172.763 193.856 176.262C192.924 179.294 192.223 182.327 191.756 185.359C191.291 188.857 191.058 192.589 192.456 195.854C196.888 206.582 214.614 185.825 217.879 182.327L225.11 174.395C226.742 172.53 230.006 167.399 232.572 170.431C233.738 172.065 232.806 173.463 231.872 174.63C230.475 176.262 229.074 177.662 227.907 179.294L220.211 187.457C216.246 191.889 212.048 196.086 207.384 199.585C204.118 201.918 200.622 204.25 196.422 204.017C189.192 204.017 186.392 197.253 186.159 190.955C185.926 183.493 188.494 176.029 190.824 168.799C189.192 170.665 187.792 172.53 186.392 174.395C184.994 176.029 182.195 176.262 181.495 173.697C180.796 171.597 184.062 168.799 185.227 167.399L190.824 160.17C192.223 158.77 193.39 157.138 194.791 155.505C195.256 154.806 196.188 153.873 196.422 152.939C196.888 152.241 197.122 151.307 197.587 150.374C199.687 144.778 201.787 139.413 204.118 134.047C207.384 125.653 210.65 117.255 214.38 109.093C216.947 103.495 219.746 97.8981 222.542 92.3008C225.11 87.4021 227.907 82.2728 231.64 78.0741C234.904 74.1088 240.735 69.2115 246.098 72.0101C251.463 74.5755 250.996 82.2728 249.132 86.9368Z" fill="#231F20"/>
<path d="M290.414 77.1408C289.715 76.2088 288.316 76.4421 287.382 76.6741C282.951 78.5395 279.918 83.4381 277.587 87.4021C274.788 91.6008 272.455 96.2648 270.358 100.93C266.858 107.694 263.826 114.457 261.027 121.221L254.031 138.713C261.26 129.15 268.488 119.589 275.254 110.026C280.383 102.562 285.748 95.0995 289.715 86.9368C290.88 84.3701 292.511 79.7061 290.414 77.1408ZM295.312 86.9368C293.912 90.9008 291.579 94.6328 289.482 98.1315C284.116 106.994 278.052 115.39 271.756 123.786C264.059 134.282 256.128 144.543 248.2 154.806C247.5 155.505 247.035 156.205 246.568 157.138L245.634 159.937L243.535 165.533C242.136 169.266 240.971 172.763 240.036 176.262C239.104 179.294 238.403 182.327 237.936 185.359C237.471 188.857 237.238 192.589 238.636 195.854C243.068 206.582 260.794 185.825 264.059 182.327L271.29 174.395C272.922 172.53 276.186 167.399 278.752 170.431C279.918 172.065 278.986 173.463 278.052 174.63C276.655 176.262 275.254 177.662 274.087 179.294L266.391 187.457C262.426 191.889 258.228 196.086 253.564 199.585C250.298 201.918 246.802 204.25 242.602 204.017C235.372 204.017 232.572 197.253 232.339 190.955C232.106 183.493 234.674 176.029 237.004 168.799C235.372 170.665 233.972 172.53 232.572 174.395C231.174 176.029 228.375 176.262 227.675 173.697C226.976 171.597 230.242 168.799 231.407 167.399L237.004 160.17C238.403 158.77 239.57 157.138 240.971 155.505C241.436 154.806 242.368 153.873 242.602 152.939C243.068 152.241 243.302 151.307 243.767 150.374C245.867 144.778 247.967 139.413 250.298 134.047C253.564 125.653 256.83 117.255 260.56 109.093C263.126 103.495 265.926 97.8981 268.722 92.3008C271.29 87.4021 274.087 82.2728 277.82 78.0741C281.084 74.1088 286.915 69.2115 292.278 72.0101C297.643 74.5755 297.176 82.2728 295.312 86.9368Z" fill="#231F20"/>
<path d="M315.372 174.396C319.335 167.867 322.368 160.403 321.67 152.473C321.436 150.141 320.97 146.876 318.635 145.477C316.538 144.543 313.972 146.176 312.571 147.575C308.142 152.24 306.042 159.236 305.11 165.3C304.176 171.364 304.41 179.061 309.075 183.727C311.406 180.695 313.506 177.663 315.372 174.396ZM342.891 177.896L336.594 184.192C333.098 187.224 329.131 190.256 324.699 191.656C322.135 192.355 319.335 192.821 316.538 192.355C315.139 192.121 313.739 191.889 312.339 191.423C311.639 191.189 310.94 190.955 310.24 190.489L308.142 192.589C303.244 197.72 297.18 202.384 290.183 204.016C283.652 205.416 276.887 203.317 273.624 197.253C271.056 192.355 271.056 186.291 271.991 180.927C274.091 169.499 280.388 158.771 288.316 150.373C290.648 148.043 293.215 145.709 295.78 143.611C296.946 142.911 298.579 141.279 299.978 141.279C301.611 141.511 302.543 142.677 302.543 144.077C302.311 145.943 300.676 146.643 299.511 147.575C298.114 148.508 296.946 149.441 295.78 150.607C293.215 152.707 290.882 155.039 288.782 157.604C285.051 162.501 281.786 167.633 279.688 173.464C277.822 178.128 276.422 183.027 276.655 188.157C276.887 194.221 280.388 200.052 287.151 199.119C294.38 198.185 300.91 192.821 305.575 187.691C297.414 180.227 298.812 166.467 301.844 156.671C303.478 151.54 306.042 145.477 310.707 142.212C315.606 138.712 321.903 139.412 324.699 144.777C328.199 151.075 327.267 159.704 324.932 166.233C322.602 173.464 318.402 180.46 313.739 186.291C318.635 188.157 323.534 186.991 327.966 184.192C330.763 182.327 333.564 179.993 335.895 177.428L340.794 172.297C341.726 170.897 343.359 169.732 344.992 171.131C347.556 173.464 344.291 176.263 342.891 177.896Z" fill="#231F20"/>
<path d="M458.416 169.524C458.649 171.624 457.166 173.384 456.292 175.022C453.962 178.7 450.898 182.264 445.281 185.359C441.88 187.232 437.817 188.858 433.853 187.923C429.653 186.991 426.621 184.192 425.689 179.994C421.958 186.058 417.758 191.656 412.628 196.552C408.662 200.519 403.533 204.016 397.702 204.95C394.901 205.415 391.872 205.415 389.304 204.016C386.74 202.85 385.106 200.286 384.408 197.254C383.006 190.256 385.574 182.794 387.905 176.263C382.074 184.192 375.778 191.888 368.082 198.186C363.884 201.684 358.752 205.415 352.921 205.415C348.257 205.415 344.76 202.616 344.293 197.952C343.594 193.288 345.225 188.624 346.624 184.192C348.957 177.428 351.522 170.898 354.554 164.135L349.189 170.664L346.158 173.93C345.458 174.863 344.76 175.796 343.358 175.796C342.193 175.563 341.26 174.863 341.026 173.696C340.793 172.298 341.492 171.364 342.193 170.664L347.789 164.135C352.921 158.071 357.82 152.007 362.018 145.476C363.184 143.844 364.349 141.278 366.682 141.979C368.316 142.678 368.781 144.31 368.082 145.943L363.884 155.739C360.152 164.602 356.188 173.231 352.688 182.327C351.756 185.126 350.824 187.923 350.124 190.722C349.658 192.822 349.189 194.92 349.422 197.02C349.658 198.886 350.357 200.052 351.989 200.052C353.62 200.286 355.253 199.818 356.886 199.352C360.385 197.952 363.417 195.387 366.449 192.822C370.18 189.556 373.446 185.826 376.71 181.859C383.706 173.464 389.77 164.602 395.601 155.272C397.936 151.774 400.266 148.043 402.366 144.31C402.832 143.378 403.3 142.444 404 141.744C405.165 141.046 406.796 141.278 407.73 142.444C408.662 143.611 407.964 145.011 407.262 146.41C406.564 147.342 405.864 148.508 405.398 149.675C399.568 160.403 394.436 171.364 391.17 183.026C390.005 186.991 388.838 191.423 389.537 195.62C389.77 197.254 390.472 199.119 392.338 199.584C394.669 200.286 397.702 199.818 399.8 198.886C405.398 196.786 410.064 192.355 413.794 187.691C418.225 182.327 422.19 176.028 425.689 169.732C426.621 168.099 427.556 166.467 428.254 164.834L430.585 159.47L435.717 149.675C436.416 148.043 437.116 146.176 438.05 144.543C438.282 143.844 438.516 143.144 439.217 142.444C440.149 141.511 442.014 141.744 442.946 142.678C444.346 144.31 442.946 146.41 442.248 148.043C441.314 149.908 440.616 152.007 439.45 153.874L434.552 164.135C432.918 167.4 431.518 170.898 430.818 174.631C430.353 176.728 430.353 179.295 431.753 180.927C433.153 182.794 435.717 183.259 437.817 182.794C440.849 182.327 443.413 180.694 445.748 178.828C449.01 176.496 463.49 157.112 465.537 153.231C466.938 151.832 458.416 167.426 458.416 169.524Z" fill="#231F20"/>
<path d="M72.3397 256.695C72.3784 256.255 72.477 255.817 72.521 255.378C72.5677 254.907 72.6117 254.437 72.653 253.966C72.7384 252.966 72.8064 251.966 72.8517 250.965C72.945 248.895 72.9424 246.815 72.7384 244.753C72.5504 242.866 72.201 240.959 71.4517 239.209C71.329 238.923 71.1957 238.642 71.0504 238.369C68.5864 233.886 64.197 231.663 59.2584 231.355C50.325 231.057 42.1517 236.797 34.589 244.537C34.3197 244.942 34.0397 245.341 33.805 245.767C33.0917 247.059 32.665 248.478 32.0237 249.806C31.8304 250.205 31.5464 250.421 31.241 250.551C30.8624 251.951 30.681 253.334 30.409 255.49C31.0077 254.775 31.6157 254.074 32.241 253.402C36.5384 248.613 41.1064 244.27 46.2117 240.821C50.013 238.645 54.301 236.665 58.757 236.777C60.8477 236.61 63.0157 237.373 64.7544 238.637C66.781 240.582 67.4864 243.566 67.9237 246.106C68.1944 249.497 67.4197 256.045 66.7997 259.359C67.8104 259.109 68.7704 258.693 69.7184 258.267C70.1957 258.054 70.6717 257.835 71.1544 257.631C71.3944 257.53 71.6357 257.433 71.8797 257.341C72.1184 257.251 72.3157 257.226 72.325 256.934C72.3277 256.854 72.333 256.775 72.3397 256.695Z" fill="#231F20"/>
<path d="M126.726 83.4396C124.764 80.6303 122.886 77.7343 120.83 74.9929C114.106 65.3583 107.382 55.7249 100.658 46.0916C94.3055 36.9903 87.9535 27.8876 81.6002 18.7863C78.0429 13.6903 74.4855 8.59428 70.9282 3.49695C70.7602 3.25562 70.5909 3.01427 70.4229 2.77294C69.8589 1.97427 68.9429 1.49961 67.9655 1.49961H56.1442C50.4509 1.49961 45.1415 6.45295 44.5202 12.3289L36.6415 68.9076C38.7535 67.4463 40.9562 66.1369 43.2575 65.0049L50.4842 13.1063C50.4895 13.0676 50.4935 13.0289 50.4975 12.9903C50.8109 9.85561 53.7375 7.51427 56.1442 7.51427H66.4069C69.2842 11.5783 72.1602 15.6423 75.0362 19.7063C81.6242 29.0143 88.2109 38.3209 94.7989 47.6289C102.044 57.8649 109.29 68.1023 116.535 78.3383C119.45 82.4569 122.364 86.5756 125.279 90.6929C125.844 91.4916 126.346 92.2876 126.796 93.0929C128.08 91.8036 129.392 90.5436 130.714 89.2903C129.482 87.2769 128.076 85.3743 126.726 83.4396Z" fill="#231F20"/>
</g>
<defs>
<clipPath id="clip0">
<rect width="585.138" height="333.364" fill="white"/>
</clipPath>
</defs>
</svg>
