<svg width="1696" height="296" viewBox="0 0 1696 296" fill="none" xmlns="http://www.w3.org/2000/svg">
<g clip-path="url(#clip0)">
<rect width="1696" height="296" fill="#EFEB4F"/>
<path d="M105.616 88.056C101.92 97.688 98.336 110.568 94.864 126.696H91.168C91.84 122.328 92.176 118.464 92.176 115.104C92.176 109.728 91.28 105.304 89.488 101.832C87.472 97.688 84.448 94.496 80.416 92.256C76.496 89.904 72.184 88.728 67.48 88.728C58.184 88.728 49.168 93.096 40.432 101.832C31.808 110.568 24.808 121.6 19.432 134.928C14.056 148.144 11.368 160.968 11.368 173.4C11.368 184.152 13.496 192.328 17.752 197.928C22.008 203.528 27.888 206.328 35.392 206.328C40.32 206.328 45.528 205.208 51.016 202.968C56.504 200.616 61.264 197.368 65.296 193.224C68.208 190.312 70.728 186.952 72.856 183.144C74.984 179.224 77.504 173.736 80.416 166.68H84.112C78.848 186.056 75.544 199.496 74.2 207H70.504C70.84 204.648 71.008 202.744 71.008 201.288C71.008 198.376 70.336 196.92 68.992 196.92C68.208 196.92 67.032 197.424 65.464 198.432C59.64 202.24 54.544 205.04 50.176 206.832C45.808 208.512 40.32 209.352 33.712 209.352C21.28 209.352 11.648 205.992 4.816 199.272C-2.016 192.552 -5.432 182.752 -5.432 169.872C-5.432 156.992 -2.24 144 4.144 130.896C10.64 117.792 19.488 106.984 30.688 98.472C42 89.96 54.376 85.704 67.816 85.704C74.312 85.704 79.24 86.656 82.6 88.56C86.072 90.352 89.488 93.04 92.848 96.624C93.632 97.632 94.472 98.136 95.368 98.136C96.376 98.136 97.384 97.352 98.392 95.784C99.512 94.104 100.744 91.528 102.088 88.056H105.616ZM164.907 118.296C167.931 118.296 170.339 119.192 172.131 120.984C173.923 122.776 174.819 125.072 174.819 127.872C174.819 131.232 173.643 134.088 171.291 136.44C168.939 138.792 166.195 139.968 163.059 139.968C161.043 139.968 159.419 139.464 158.187 138.456C156.955 137.336 156.339 135.824 156.339 133.92C156.339 131.344 157.011 129.16 158.355 127.368C159.699 125.576 161.547 124.176 163.899 123.168C163.451 122.72 162.835 122.496 162.051 122.496C156.003 122.496 149.395 129.048 142.227 142.152C135.171 155.144 128.507 172.336 122.235 193.728L118.875 207H104.259L124.419 134.928C125.203 132.464 125.595 130.28 125.595 128.376C125.595 125.8 124.419 124.512 122.067 124.512C119.603 124.512 117.307 125.856 115.179 128.544C113.163 131.12 111.091 135.488 108.963 141.648L106.779 147.864H103.587L107.787 135.6C111.819 124.064 118.595 118.296 128.115 118.296C134.499 118.296 137.691 121.544 137.691 128.04C137.691 131.176 136.907 135.768 135.339 141.816L129.963 162.984C136.011 146.744 141.667 135.264 146.931 128.544C152.307 121.712 158.299 118.296 164.907 118.296ZM236.685 129.384C236.685 138.456 231.589 146.408 221.397 153.24C211.205 160.072 199.557 165.616 186.453 169.872C185.221 175.472 184.605 180.904 184.605 186.168C184.605 196.92 188.469 202.296 196.197 202.296C205.829 202.296 214.453 196.696 222.069 185.496L224.757 186.84C221.173 193 216.301 198.32 210.141 202.8C204.093 207.168 197.709 209.352 190.989 209.352C184.045 209.352 178.613 207.336 174.693 203.304C170.773 199.272 168.813 193.392 168.813 185.664C168.813 177.152 171.277 167.576 176.205 156.936C181.245 146.184 188.021 137.056 196.533 129.552C205.045 122.048 214.285 118.296 224.253 118.296C227.837 118.296 230.805 119.248 233.157 121.152C235.509 123.056 236.685 125.8 236.685 129.384ZM220.557 121.488C216.973 121.488 212.941 123.616 208.461 127.872C204.093 132.016 199.949 137.56 196.029 144.504C192.221 151.448 189.309 158.84 187.293 166.68C197.933 162.984 205.549 159.4 210.141 155.928C214.285 152.68 217.477 148.76 219.717 144.168C222.069 139.464 223.245 134.424 223.245 129.048C223.245 126.024 223.021 124.008 222.573 123C222.125 121.992 221.453 121.488 220.557 121.488ZM315.26 179.616H318.452L314.252 191.88C312.012 198.04 309.156 202.52 305.684 205.32C302.212 208.008 298.628 209.352 294.932 209.352C292.804 209.352 290.956 208.96 289.388 208.176C287.82 207.392 286.588 206.328 285.692 204.984C284.684 203.304 284.18 201.344 284.18 199.104C284.18 196.752 284.572 194.12 285.356 191.208C286.14 188.296 286.644 186.448 286.868 185.664L289.892 173.568C284.516 186.112 279.028 195.24 273.428 200.952C267.94 206.552 262.172 209.352 256.124 209.352C250.972 209.352 247.052 207.504 244.364 203.808C241.676 200.112 240.332 195.184 240.332 189.024C240.332 179.952 242.74 169.816 247.556 158.616C252.372 147.416 258.644 137.896 266.372 130.056C274.1 122.216 281.94 118.296 289.892 118.296C292.916 118.296 295.38 119.416 297.284 121.656C299.188 123.896 300.308 127.032 300.644 131.064L303.332 120.648C309.492 120.424 314.644 119.64 318.788 118.296L297.788 192.552C297.676 193 297.452 193.896 297.116 195.24C296.78 196.472 296.612 197.648 296.612 198.768C296.612 201.568 297.844 202.968 300.308 202.968C305.236 202.968 309.548 197.256 313.244 185.832L315.26 179.616ZM260.996 203.976C264.132 203.976 267.884 201.568 272.252 196.752C276.62 191.936 280.876 185.552 285.02 177.6C289.276 169.536 292.748 160.968 295.436 151.896L298.46 139.968C298.572 139.072 298.628 137.84 298.628 136.272C298.628 131.68 297.788 128.096 296.108 125.52C294.54 122.832 292.3 121.488 289.388 121.488C284.572 121.488 279.476 125.24 274.1 132.744C268.724 140.136 264.188 149.32 260.492 160.296C256.908 171.16 255.116 181.408 255.116 191.04C255.116 195.632 255.62 198.936 256.628 200.952C257.636 202.968 259.092 203.976 260.996 203.976ZM347.086 192.72C346.75 194.064 346.582 195.296 346.582 196.416C346.582 198.656 347.254 200.336 348.598 201.456C349.942 202.576 351.678 203.136 353.806 203.136C356.606 203.136 359.182 201.96 361.534 199.608C363.998 197.144 366.406 192.72 368.758 186.336L371.11 179.784H374.302L370.774 190.368C368.422 197.312 365.342 202.24 361.534 205.152C357.838 207.952 353.246 209.352 347.758 209.352C342.718 209.352 338.966 208.12 336.502 205.656C334.038 203.192 332.806 199.776 332.806 195.408C332.806 192.496 333.31 189.304 334.318 185.832L352.126 124.008H337.006L337.846 120.648H352.966L360.358 95.112C366.406 94.888 371.446 94.104 375.478 92.76L367.582 120.648H389.758L389.254 124.008H366.574L347.086 192.72ZM453.083 129.384C453.083 138.456 447.987 146.408 437.795 153.24C427.603 160.072 415.955 165.616 402.851 169.872C401.619 175.472 401.003 180.904 401.003 186.168C401.003 196.92 404.867 202.296 412.595 202.296C422.227 202.296 430.851 196.696 438.467 185.496L441.155 186.84C437.571 193 432.699 198.32 426.539 202.8C420.491 207.168 414.107 209.352 407.387 209.352C400.443 209.352 395.011 207.336 391.091 203.304C387.171 199.272 385.211 193.392 385.211 185.664C385.211 177.152 387.675 167.576 392.603 156.936C397.643 146.184 404.419 137.056 412.931 129.552C421.443 122.048 430.683 118.296 440.651 118.296C444.235 118.296 447.203 119.248 449.555 121.152C451.907 123.056 453.083 125.8 453.083 129.384ZM436.955 121.488C433.371 121.488 429.339 123.616 424.859 127.872C420.491 132.016 416.347 137.56 412.427 144.504C408.619 151.448 405.707 158.84 403.691 166.68C414.331 162.984 421.947 159.4 426.539 155.928C430.683 152.68 433.875 148.76 436.115 144.168C438.467 139.464 439.643 134.424 439.643 129.048C439.643 126.024 439.419 124.008 438.971 123C438.523 121.992 437.851 121.488 436.955 121.488ZM625.223 179.784L621.023 192.048C616.991 203.584 610.215 209.352 600.695 209.352C595.655 209.352 592.183 207.84 590.279 204.816C589.271 203.136 588.767 201.176 588.767 198.936C588.767 195.912 589.719 191.544 591.623 185.832L607.583 137.784C608.703 134.424 609.263 131.456 609.263 128.88C609.263 125.408 608.031 123.672 605.567 123.672C599.183 123.672 591.959 131.008 583.895 145.68C575.943 160.24 568.215 179.56 560.711 203.64L560.879 202.632L559.703 207H544.583L565.583 137.784C566.703 134.424 567.263 131.568 567.263 129.216C567.263 125.52 565.695 123.672 562.559 123.672C558.415 123.672 553.767 126.976 548.615 133.584C543.463 140.08 538.367 148.984 533.327 160.296C528.399 171.608 524.087 184.096 520.391 197.76L518.039 207H503.423L523.583 134.928C524.367 131.792 524.759 129.72 524.759 128.712C524.759 125.912 523.583 124.512 521.231 124.512C518.767 124.512 516.471 125.856 514.343 128.544C512.327 131.12 510.255 135.488 508.127 141.648L505.943 147.864H502.751L506.951 135.6C510.983 124.064 517.759 118.296 527.279 118.296C533.775 118.296 537.023 121.656 537.023 128.376C537.023 131.288 536.183 135.768 534.503 141.816L529.127 163.152C535.847 146.8 542.175 135.264 548.111 128.544C554.047 121.712 560.711 118.296 568.103 118.296C575.495 118.296 579.191 122.216 579.191 130.056C579.191 133.528 578.407 138.064 576.839 143.664L570.791 166.176C575.495 154.416 579.919 145.12 584.063 138.288C588.207 131.344 592.407 126.304 596.663 123.168C601.031 119.92 605.847 118.296 611.111 118.296C618.951 118.296 622.871 122.496 622.871 130.896C622.871 134.48 622.087 138.736 620.519 143.664L604.223 192.72C603.327 195.632 602.879 197.76 602.879 199.104C602.879 201.792 604.223 203.136 606.911 203.136C609.151 203.136 611.279 201.904 613.295 199.44C615.423 196.864 617.607 192.384 619.847 186L622.031 179.784H625.223ZM703.443 129.384C703.443 138.456 698.347 146.408 688.155 153.24C677.963 160.072 666.315 165.616 653.211 169.872C651.979 175.472 651.363 180.904 651.363 186.168C651.363 196.92 655.227 202.296 662.955 202.296C672.587 202.296 681.211 196.696 688.827 185.496L691.515 186.84C687.931 193 683.059 198.32 676.899 202.8C670.851 207.168 664.467 209.352 657.747 209.352C650.803 209.352 645.371 207.336 641.451 203.304C637.531 199.272 635.571 193.392 635.571 185.664C635.571 177.152 638.035 167.576 642.963 156.936C648.003 146.184 654.779 137.056 663.291 129.552C671.803 122.048 681.043 118.296 691.011 118.296C694.595 118.296 697.563 119.248 699.915 121.152C702.267 123.056 703.443 125.8 703.443 129.384ZM687.315 121.488C683.731 121.488 679.699 123.616 675.219 127.872C670.851 132.016 666.707 137.56 662.787 144.504C658.979 151.448 656.067 158.84 654.051 166.68C664.691 162.984 672.307 159.4 676.899 155.928C681.043 152.68 684.235 148.76 686.475 144.168C688.827 139.464 690.003 134.424 690.003 129.048C690.003 126.024 689.779 124.008 689.331 123C688.883 121.992 688.211 121.488 687.315 121.488ZM782.018 179.616H785.21L781.01 191.88C778.77 198.04 775.914 202.52 772.442 205.32C768.97 208.008 765.386 209.352 761.69 209.352C759.562 209.352 757.714 208.96 756.146 208.176C754.578 207.392 753.346 206.328 752.45 204.984C751.442 203.304 750.938 201.344 750.938 199.104C750.938 196.752 751.33 194.12 752.114 191.208C752.898 188.296 753.402 186.448 753.626 185.664L756.65 173.568C751.274 186.112 745.786 195.24 740.186 200.952C734.698 206.552 728.93 209.352 722.882 209.352C717.73 209.352 713.81 207.504 711.122 203.808C708.434 200.112 707.09 195.184 707.09 189.024C707.09 179.952 709.498 169.816 714.314 158.616C719.13 147.416 725.402 137.896 733.13 130.056C740.858 122.216 748.698 118.296 756.65 118.296C759.674 118.296 762.138 119.416 764.042 121.656C765.946 123.896 767.066 127.032 767.402 131.064L770.09 120.648C776.25 120.424 781.402 119.64 785.546 118.296L764.546 192.552C764.434 193 764.21 193.896 763.874 195.24C763.538 196.472 763.37 197.648 763.37 198.768C763.37 201.568 764.602 202.968 767.066 202.968C771.994 202.968 776.306 197.256 780.002 185.832L782.018 179.616ZM727.754 203.976C730.89 203.976 734.642 201.568 739.01 196.752C743.378 191.936 747.634 185.552 751.778 177.6C756.034 169.536 759.506 160.968 762.194 151.896L765.218 139.968C765.33 139.072 765.386 137.84 765.386 136.272C765.386 131.68 764.546 128.096 762.866 125.52C761.298 122.832 759.058 121.488 756.146 121.488C751.33 121.488 746.234 125.24 740.858 132.744C735.482 140.136 730.946 149.32 727.25 160.296C723.666 171.16 721.874 181.408 721.874 191.04C721.874 195.632 722.378 198.936 723.386 200.952C724.394 202.968 725.85 203.976 727.754 203.976ZM882.556 179.784L878.356 192.048C874.324 203.584 867.548 209.352 858.028 209.352C852.988 209.352 849.46 207.728 847.444 204.48C846.548 203.136 846.1 201.288 846.1 198.936C846.1 195.912 847.052 191.544 848.956 185.832L864.916 137.784C866.036 134.088 866.596 131.344 866.596 129.552C866.596 125.632 864.804 123.672 861.22 123.672C856.964 123.672 852.092 126.808 846.604 133.08C841.228 139.24 835.908 147.752 830.644 158.616C825.38 169.48 820.844 181.52 817.036 194.736L814.012 207H799.396L819.556 134.928C820.34 132.016 820.732 129.944 820.732 128.712C820.732 125.912 819.5 124.512 817.036 124.512C814.572 124.512 812.388 125.744 810.484 128.208C808.58 130.672 806.452 135.152 804.1 141.648L801.916 147.864H798.724L802.924 135.6C806.956 124.064 813.62 118.296 822.916 118.296C826.5 118.296 829.02 119.192 830.476 120.984C832.044 122.664 832.828 125.072 832.828 128.208C832.828 131.232 832.044 135.768 830.476 141.816L824.596 164.832C831.764 147.92 838.596 135.936 845.092 128.88C851.7 121.824 858.924 118.296 866.764 118.296C875.836 118.296 880.372 122.496 880.372 130.896C880.372 134.592 879.532 138.848 877.852 143.664L861.556 192.72C860.66 195.408 860.212 197.536 860.212 199.104C860.212 201.792 861.556 203.136 864.244 203.136C866.484 203.136 868.612 201.904 870.628 199.44C872.756 196.864 874.94 192.384 877.18 186L879.364 179.784H882.556ZM922.553 92.256C922.553 88.896 923.785 85.928 926.249 83.352C928.825 80.664 931.737 79.32 934.985 79.32C937.561 79.32 939.633 80.16 941.201 81.84C942.769 83.52 943.553 85.592 943.553 88.056C943.553 91.416 942.265 94.384 939.689 96.96C937.113 99.536 934.201 100.824 930.953 100.824C928.489 100.824 926.473 100.04 924.905 98.472C923.337 96.792 922.553 94.72 922.553 92.256ZM917.513 134.928C918.409 132.24 918.857 130.168 918.857 128.712C918.857 125.912 917.625 124.512 915.161 124.512C912.585 124.512 910.289 125.856 908.273 128.544C906.257 131.232 904.129 135.6 901.889 141.648L899.537 147.864H896.345L900.713 135.6C902.953 129.216 905.921 124.736 909.617 122.16C913.425 119.584 917.401 118.296 921.545 118.296C928.937 118.296 932.633 121.824 932.633 128.88C932.633 132.576 931.737 136.888 929.945 141.816L911.969 192.72C911.073 195.408 910.625 197.48 910.625 198.936C910.625 201.736 911.969 203.136 914.657 203.136C917.009 203.136 919.193 201.848 921.209 199.272C923.225 196.696 925.409 192.272 927.761 186L930.113 179.784H933.305L928.937 192.048C926.697 198.208 923.729 202.632 920.033 205.32C916.449 208.008 912.529 209.352 908.273 209.352C900.433 209.352 896.513 205.936 896.513 199.104C896.513 195.856 897.521 191.432 899.537 185.832L917.513 134.928ZM1030.7 179.784L1026.5 192.048C1022.47 203.584 1015.7 209.352 1006.18 209.352C1001.14 209.352 997.608 207.728 995.592 204.48C994.696 203.136 994.248 201.288 994.248 198.936C994.248 195.912 995.2 191.544 997.104 185.832L1013.06 137.784C1014.18 134.088 1014.74 131.344 1014.74 129.552C1014.74 125.632 1012.95 123.672 1009.37 123.672C1005.11 123.672 1000.24 126.808 994.752 133.08C989.376 139.24 984.056 147.752 978.792 158.616C973.528 169.48 968.992 181.52 965.184 194.736L962.16 207H947.544L967.704 134.928C968.488 132.016 968.88 129.944 968.88 128.712C968.88 125.912 967.648 124.512 965.184 124.512C962.72 124.512 960.536 125.744 958.632 128.208C956.728 130.672 954.6 135.152 952.248 141.648L950.064 147.864H946.872L951.072 135.6C955.104 124.064 961.768 118.296 971.064 118.296C974.648 118.296 977.168 119.192 978.624 120.984C980.192 122.664 980.976 125.072 980.976 128.208C980.976 131.232 980.192 135.768 978.624 141.816L972.744 164.832C979.912 147.92 986.744 135.936 993.24 128.88C999.848 121.824 1007.07 118.296 1014.91 118.296C1023.98 118.296 1028.52 122.496 1028.52 130.896C1028.52 134.592 1027.68 138.848 1026 143.664L1009.7 192.72C1008.81 195.408 1008.36 197.536 1008.36 199.104C1008.36 201.792 1009.7 203.136 1012.39 203.136C1014.63 203.136 1016.76 201.904 1018.78 199.44C1020.9 196.864 1023.09 192.384 1025.33 186L1027.51 179.784H1030.7ZM1113.54 111.408C1116.57 111.408 1118.92 112.248 1120.6 113.928C1122.39 115.608 1123.29 118.128 1123.29 121.488C1123.29 124.4 1122.56 126.64 1121.1 128.208C1119.65 129.776 1117.91 130.56 1115.89 130.56C1113.77 130.56 1111.86 129.832 1110.18 128.376C1108.61 126.92 1107.83 124.792 1107.83 121.992C1107.83 119.976 1108.33 117.624 1109.34 114.936C1104.97 116.84 1101.78 119.192 1099.77 121.992C1104.47 125.24 1106.82 130.28 1106.82 137.112C1106.82 142.04 1105.59 146.856 1103.13 151.56C1100.77 156.264 1097.36 160.352 1092.88 163.824C1088.51 167.184 1083.41 169.424 1077.59 170.544L1072.05 173.568C1066.78 176.368 1062.92 178.608 1060.45 180.288C1058.1 181.968 1056.93 183.592 1056.93 185.16C1056.93 186.392 1057.71 187.456 1059.28 188.352C1060.85 189.248 1063.42 190.144 1067.01 191.04L1079.27 194.232C1085.65 195.912 1090.41 197.76 1093.55 199.776C1096.69 201.792 1098.25 204.816 1098.25 208.848C1098.25 213.104 1096.46 217.64 1092.88 222.456C1089.41 227.272 1083.97 231.36 1076.58 234.72C1069.3 238.08 1060.29 239.76 1049.53 239.76C1040.91 239.76 1034.36 238.64 1029.88 236.4C1025.29 234.16 1022.99 231.08 1022.99 227.16C1022.99 223.352 1025.06 219.488 1029.21 215.568C1033.35 211.76 1039.23 208.736 1046.85 206.496L1048.02 209.016C1040.74 212.824 1037.1 217.92 1037.1 224.304C1037.1 228.56 1038.56 231.696 1041.47 233.712C1044.49 235.84 1048.47 236.904 1053.4 236.904C1058.33 236.904 1063.42 235.896 1068.69 233.88C1073.95 231.864 1078.26 229.176 1081.62 225.816C1085.09 222.568 1086.83 219.152 1086.83 215.568C1086.83 214 1086.38 212.936 1085.49 212.376C1084.59 211.816 1082.74 211.2 1079.94 210.528L1054.24 203.976C1048.19 202.408 1045.17 199.048 1045.17 193.896C1045.17 190.424 1046.96 187.008 1050.54 183.648C1054.24 180.176 1061.13 176.032 1071.21 171.216H1070.03C1063.53 171.216 1058.27 169.704 1054.24 166.68C1050.21 163.544 1048.19 158.952 1048.19 152.904C1048.19 148.2 1049.42 143.16 1051.89 137.784C1054.35 132.408 1058.33 127.816 1063.81 124.008C1069.3 120.2 1076.25 118.296 1084.65 118.296C1089.46 118.296 1093.49 119.024 1096.74 120.48C1098.87 117.792 1101.45 115.608 1104.47 113.928C1107.49 112.248 1110.52 111.408 1113.54 111.408ZM1071.71 168.192C1076.86 168.192 1080.95 166.232 1083.97 162.312C1087 158.28 1089.07 153.632 1090.19 148.368C1091.31 143.104 1091.87 138.232 1091.87 133.752C1091.87 129.608 1091.31 126.528 1090.19 124.512C1089.07 122.384 1087 121.32 1083.97 121.32C1078.6 121.32 1074.29 123.728 1071.04 128.544C1067.9 133.248 1065.72 138.456 1064.49 144.168C1063.37 149.88 1062.81 154.528 1062.81 158.112C1062.81 164.832 1065.77 168.192 1071.71 168.192ZM1180.11 75.624C1185.03 75.624 1188.9 76.744 1191.7 78.984C1194.61 81.224 1196.07 84.08 1196.07 87.552C1196.07 90.464 1194.95 93.152 1192.71 95.616C1190.58 97.968 1187.95 99.144 1184.81 99.144C1182.68 99.144 1181 98.64 1179.77 97.632C1178.54 96.624 1177.98 95.224 1178.09 93.432C1178.09 90.744 1178.93 88.448 1180.61 86.544C1182.4 84.528 1184.75 83.072 1187.67 82.176C1187.67 81.168 1186.88 80.272 1185.31 79.488C1183.86 78.592 1182.07 78.144 1179.94 78.144C1176.58 78.144 1173.33 79.6 1170.19 82.512C1167.84 84.64 1165.88 88.056 1164.31 92.76C1162.75 97.352 1160.79 104.184 1158.43 113.256L1156.59 120.48V120.648H1176.41L1175.4 124.008H1155.58L1125.51 236.232C1119.46 236.456 1114.42 237.24 1110.39 238.584L1140.96 124.008H1125.84L1126.85 120.648H1141.97V120.48C1144.43 111.296 1146.95 103.848 1149.53 98.136C1152.22 92.312 1155.41 87.608 1159.11 84.024C1161.68 81.448 1164.82 79.432 1168.51 77.976C1172.32 76.408 1176.19 75.624 1180.11 75.624ZM1252.39 179.784H1255.59L1251.39 192.048C1247.35 203.584 1240.58 209.352 1231.06 209.352C1229.27 209.352 1227.59 208.96 1226.02 208.176C1224.45 207.392 1223.27 206.272 1222.49 204.816C1221.82 203.248 1221.48 201.512 1221.48 199.608C1221.48 196.696 1222.27 192.104 1223.83 185.832L1229.04 164.832C1222.55 180.848 1216.22 192.272 1210.06 199.104C1203.9 205.936 1197.18 209.352 1189.9 209.352C1180.49 209.352 1175.79 205.04 1175.79 196.416C1175.79 192.832 1176.57 188.688 1178.14 183.984L1194.43 134.928C1195.33 132.24 1195.78 130.168 1195.78 128.712C1195.78 125.912 1194.43 124.512 1191.75 124.512C1189.51 124.512 1187.32 125.8 1185.19 128.376C1183.18 130.84 1181.05 135.264 1178.81 141.648L1176.63 147.864H1173.43L1177.63 135.6C1181.67 124.064 1188.44 118.296 1197.96 118.296C1205.8 118.296 1209.72 121.768 1209.72 128.712C1209.72 132.072 1208.83 136.44 1207.03 141.816L1191.07 189.864C1189.95 193.224 1189.39 196.024 1189.39 198.264C1189.39 202.072 1191.19 203.976 1194.77 203.976C1199.14 203.976 1203.95 200.784 1209.22 194.4C1214.48 187.904 1219.69 178.944 1224.84 167.52C1229.99 156.096 1234.47 143.216 1238.28 128.88L1240.3 120.648C1246.68 120.424 1251.78 119.64 1255.59 118.296L1234.75 192.72C1233.97 195.632 1233.58 197.816 1233.58 199.272C1233.58 201.848 1234.75 203.136 1237.11 203.136C1239.57 203.136 1241.81 201.848 1243.83 199.272C1245.95 196.584 1248.08 192.16 1250.21 186L1252.39 179.784ZM1281.02 192.72C1280.35 195.072 1280.01 197.032 1280.01 198.6C1280.01 201.624 1281.3 203.136 1283.87 203.136C1286.11 203.136 1288.19 201.848 1290.09 199.272C1292.11 196.696 1294.23 192.272 1296.47 186L1298.66 179.784H1301.85L1297.65 192.048C1293.73 203.584 1287.01 209.352 1277.49 209.352C1269.76 209.352 1265.9 205.712 1265.9 198.432C1265.9 195.632 1266.68 191.432 1268.25 185.832L1295.63 94.944C1296.19 92.928 1296.47 91.36 1296.47 90.24C1296.47 88 1295.58 86.376 1293.79 85.368C1292.11 84.36 1289.19 83.856 1285.05 83.856L1286.23 80.328C1292.16 80.216 1297.48 79.6 1302.19 78.48C1307 77.36 1311.65 75.68 1316.13 73.44L1281.02 192.72ZM1456.96 138.12C1457.86 141.816 1458.3 146.52 1458.3 152.232C1458.3 161.304 1456.79 170.208 1453.77 178.944C1450.86 187.68 1446.26 194.96 1439.99 200.784C1433.83 206.496 1426.16 209.352 1416.98 209.352C1408.13 209.352 1402.19 205.936 1399.17 199.104C1391.55 205.936 1383.82 209.352 1375.98 209.352C1368.82 209.352 1363.55 207.56 1360.19 203.976C1356.83 200.28 1355.15 195.688 1355.15 190.2C1355.15 180.68 1359.86 170.376 1369.26 159.288C1378.67 148.088 1390.04 137.504 1403.37 127.536C1403.03 127.648 1401.74 128.432 1399.5 129.888C1396.37 131.792 1393.9 133.192 1392.11 134.088C1390.32 134.872 1388.64 135.264 1387.07 135.264C1385.73 135.264 1384.5 134.928 1383.38 134.256C1382.37 133.584 1381.75 133.192 1381.53 133.08C1379.51 131.736 1377.83 131.064 1376.49 131.064C1374.7 131.064 1373.18 131.848 1371.95 133.416C1370.72 134.872 1369.49 137.56 1368.26 141.48L1366.24 147.696H1363.05L1366.91 135.432C1368.93 129.16 1371.22 124.736 1373.8 122.16C1376.49 119.584 1379.4 118.296 1382.54 118.296C1383.99 118.296 1385.22 118.576 1386.23 119.136C1387.24 119.584 1388.53 120.368 1390.1 121.488C1391.78 122.608 1393.12 123.448 1394.13 124.008C1395.25 124.568 1396.54 124.848 1397.99 124.848C1400.68 124.848 1403.09 124.456 1405.22 123.672C1407.34 122.776 1409.42 121.432 1411.43 119.64L1413.78 116.448L1417.31 118.128C1403.65 129.664 1392.62 141.312 1384.22 153.072C1375.82 164.832 1371.62 176.872 1371.62 189.192C1371.62 194.568 1372.4 198.432 1373.97 200.784C1375.54 203.136 1377.83 204.312 1380.86 204.312C1383.66 204.312 1386.51 203.64 1389.42 202.296C1392.45 200.952 1395.36 198.936 1398.16 196.248C1397.38 193.112 1396.98 189.808 1396.98 186.336C1396.98 180.064 1398.33 173.848 1401.02 167.688C1403.82 161.528 1407.12 156.488 1410.93 152.568C1414.85 148.648 1418.38 146.688 1421.51 146.688C1423.75 146.688 1425.26 147.864 1426.05 150.216C1426.94 152.568 1427.39 155.312 1427.39 158.448C1427.39 164.496 1425.77 170.6 1422.52 176.76C1419.27 182.92 1414.46 188.464 1408.07 193.392C1410.65 200.784 1415.13 204.48 1421.51 204.48C1428.68 204.48 1434.73 201.736 1439.66 196.248C1444.7 190.76 1448.45 183.984 1450.91 175.92C1453.38 167.856 1454.61 160.016 1454.61 152.4C1454.61 147.808 1454.22 144.112 1453.43 141.312C1449.4 140.528 1445.7 138.904 1442.34 136.44C1439.1 133.864 1437.47 130.504 1437.47 126.36C1437.47 123.672 1438.14 121.656 1439.49 120.312C1440.94 118.968 1442.62 118.296 1444.53 118.296C1447.66 118.296 1450.24 120.088 1452.26 123.672C1454.27 127.256 1455.84 132.072 1456.96 138.12ZM1420.34 150.384C1418.43 150.384 1416.36 151.84 1414.12 154.752C1411.88 157.664 1409.98 161.416 1408.41 166.008C1406.84 170.488 1406.06 175.024 1406.06 179.616C1406.06 183.648 1406.45 187.232 1407.23 190.368C1412.27 186.224 1416.25 181.296 1419.16 175.584C1422.07 169.76 1423.53 163.992 1423.53 158.28C1423.53 153.016 1422.46 150.384 1420.34 150.384ZM1471.5 182.976C1471.5 174.128 1473.46 164.664 1477.38 154.584C1481.3 144.392 1486.96 135.824 1494.35 128.88C1501.74 121.824 1510.31 118.296 1520.06 118.296C1527.22 118.296 1532.82 120.536 1536.86 125.016C1541 129.384 1543.07 135.936 1543.07 144.672C1543.07 153.52 1541.11 163.04 1537.19 173.232C1533.27 183.312 1527.62 191.88 1520.22 198.936C1512.83 205.88 1504.26 209.352 1494.52 209.352C1487.35 209.352 1481.7 207.168 1477.55 202.8C1473.52 198.32 1471.5 191.712 1471.5 182.976ZM1519.05 121.656C1513.34 121.656 1507.9 125.296 1502.75 132.576C1497.71 139.856 1493.62 148.984 1490.49 159.96C1487.46 170.824 1485.95 181.296 1485.95 191.376C1485.95 196.416 1486.74 200.112 1488.3 202.464C1489.87 204.816 1492.28 205.992 1495.53 205.992C1501.24 205.992 1506.62 202.352 1511.66 195.072C1516.81 187.792 1520.9 178.72 1523.92 167.856C1527.06 156.88 1528.62 146.352 1528.62 136.272C1528.62 131.232 1527.84 127.536 1526.27 125.184C1524.7 122.832 1522.3 121.656 1519.05 121.656ZM1616.37 118.296C1619.39 118.296 1621.8 119.192 1623.59 120.984C1625.38 122.776 1626.28 125.072 1626.28 127.872C1626.28 131.232 1625.1 134.088 1622.75 136.44C1620.4 138.792 1617.66 139.968 1614.52 139.968C1612.5 139.968 1610.88 139.464 1609.65 138.456C1608.42 137.336 1607.8 135.824 1607.8 133.92C1607.8 131.344 1608.47 129.16 1609.82 127.368C1611.16 125.576 1613.01 124.176 1615.36 123.168C1614.91 122.72 1614.3 122.496 1613.51 122.496C1607.46 122.496 1600.86 129.048 1593.69 142.152C1586.63 155.144 1579.97 172.336 1573.7 193.728L1570.34 207H1555.72L1575.88 134.928C1576.66 132.464 1577.06 130.28 1577.06 128.376C1577.06 125.8 1575.88 124.512 1573.53 124.512C1571.06 124.512 1568.77 125.856 1566.64 128.544C1564.62 131.12 1562.55 135.488 1560.42 141.648L1558.24 147.864H1555.05L1559.25 135.6C1563.28 124.064 1570.06 118.296 1579.58 118.296C1585.96 118.296 1589.15 121.544 1589.15 128.04C1589.15 131.176 1588.37 135.768 1586.8 141.816L1581.42 162.984C1587.47 146.744 1593.13 135.264 1598.39 128.544C1603.77 121.712 1609.76 118.296 1616.37 118.296ZM1694.12 118.296C1697.48 118.296 1699.94 119.136 1701.51 120.816C1703.19 122.496 1704.03 124.68 1704.03 127.368C1704.03 129.832 1703.19 132.408 1701.51 135.096C1699.94 137.672 1697.53 138.96 1694.28 138.96C1692.04 138.96 1690.36 138.344 1689.24 137.112C1688.24 135.768 1687.73 134.144 1687.73 132.24C1687.73 130.672 1688.24 128.936 1689.24 127.032C1690.25 125.016 1691.54 123.28 1693.11 121.824H1692.77C1691.54 121.824 1690.48 122.048 1689.58 122.496C1688.68 122.832 1687.68 123.392 1686.56 124.176C1684.99 125.408 1683.59 127.032 1682.36 129.048C1681.24 130.952 1679.95 133.584 1678.49 136.944C1675.69 142.88 1672.84 147.584 1669.92 151.056C1667.12 154.528 1663.04 156.88 1657.66 158.112C1664.72 158.448 1670.48 159.96 1674.96 162.648C1679.56 165.224 1681.85 169.312 1681.85 174.912C1681.85 176.256 1681.68 177.768 1681.35 179.448L1677.99 196.248C1677.76 197.144 1677.65 198.264 1677.65 199.608C1677.65 200.84 1677.93 201.736 1678.49 202.296C1679.05 202.856 1680 203.136 1681.35 203.136C1683.59 203.136 1685.66 201.848 1687.56 199.272C1689.58 196.584 1691.65 192.16 1693.78 186L1695.8 179.784H1698.99L1694.96 192.048C1691.26 203.584 1684.6 209.352 1674.96 209.352C1671.72 209.352 1669.08 208.456 1667.07 206.664C1665.05 204.872 1664.04 202.128 1664.04 198.432C1664.04 196.752 1664.27 195.072 1664.72 193.392L1667.74 178.944C1668.3 176.368 1668.58 174.296 1668.58 172.728C1668.58 168.472 1667.07 165.28 1664.04 163.152C1661.02 161.024 1655.92 159.68 1648.76 159.12L1634.64 207H1620.03L1653.29 94.944C1653.85 93.04 1654.13 91.528 1654.13 90.408C1654.13 88.168 1653.24 86.544 1651.44 85.536C1649.65 84.416 1646.68 83.856 1642.54 83.856L1643.55 80.328C1655.2 80.216 1665.28 77.92 1673.79 73.44L1649.26 157.104C1654.52 156.656 1658.78 155.424 1662.03 153.408C1665.28 151.392 1667.74 149.04 1669.42 146.352C1671.21 143.664 1673.12 140.136 1675.13 135.768C1676.59 132.408 1677.93 129.664 1679.16 127.536C1680.51 125.408 1682.13 123.616 1684.04 122.16C1687.51 119.584 1690.87 118.296 1694.12 118.296Z" fill="white"/>
<path d="M8.058 35.002C8.058 46.088 15.97 54.69 27.194 54.69C38.096 54.69 46.284 46.088 46.284 35.002C46.284 23.916 37.728 15.36 27.194 15.36C16.752 15.36 8.058 23.916 8.058 35.002ZM17.396 35.002C17.396 29.344 20.524 23.686 27.194 23.686C33.91 23.686 36.946 29.344 36.946 35.002C36.946 40.66 34.094 46.318 27.194 46.318C20.11 46.318 17.396 40.66 17.396 35.002ZM88.0038 16.05H79.3558V37.992C79.3558 44.34 77.4238 46.18 73.1918 46.18C68.9598 46.18 67.0278 44.34 67.0278 37.992V16.05H58.3798V40.522C58.3798 49.906 63.5318 54.69 73.1918 54.69C82.8518 54.69 88.0038 49.906 88.0038 40.522V16.05ZM101.81 16.05V54H110.458V39.004L122.05 54H133.044L119.98 38.314C124.626 36.842 127.754 33.024 127.754 27.32C127.754 19.868 122.418 16.05 115.38 16.05H101.81ZM110.458 32.886V22.95H111.47C114.736 22.95 118.646 23.18 118.646 27.918C118.646 32.656 114.736 32.886 111.47 32.886H110.458ZM160.203 23.64H169.219V54H177.867V23.64H186.883V16.05H160.203V23.64ZM207.385 38.774H219.621V54H228.269V16.05H219.621V31.184H207.385V16.05H198.737V54H207.385V38.774ZM264.228 16.05H242.516V54H264.228V46.41H251.164V38.774H263.676V31.184H251.164V23.64H264.228V16.05ZM309.312 54H317.96L314.556 16.05H305.356L296.938 37.946L288.52 16.05H279.32L275.916 54H284.564L286.358 31.506H286.588L294.362 53.77H299.514L307.288 31.506H307.518L309.312 54ZM351.921 16.05H330.209V54H351.921V46.41H338.857V38.774H351.369V31.184H338.857V23.64H351.921V16.05ZM370.877 28.516C367.979 28.516 365.633 30.862 365.633 33.806C365.633 36.704 367.979 39.05 370.877 39.05C373.821 39.05 376.167 36.704 376.167 33.806C376.167 30.862 373.821 28.516 370.877 28.516ZM370.877 44.156C367.979 44.156 365.633 46.502 365.633 49.446C365.633 52.344 367.979 54.69 370.877 54.69C373.821 54.69 376.167 52.344 376.167 49.446C376.167 46.502 373.821 44.156 370.877 44.156Z" fill="white"/>
<path d="M1347.41 258.992H1350.86L1349.04 266H1353.01L1354.83 258.992H1358.26L1359.28 255.12H1355.86L1357.07 250.448H1360.34L1361.36 246.576H1358.1L1359.92 239.6H1355.95L1354.13 246.576H1350.67L1352.5 239.6H1348.53L1346.7 246.576H1343.28L1342.26 250.448H1345.68L1344.46 255.12H1341.2L1340.18 258.992H1343.44L1341.62 266H1345.58L1347.41 258.992ZM1351.89 255.12H1348.43L1349.65 250.448H1353.1L1351.89 255.12ZM1384.92 249.584L1381.01 258L1376.44 249.584H1369.91L1377.68 263.44L1372.02 274.32H1378.55L1391.44 249.584H1384.92ZM1415.31 258.576C1415.35 258.384 1415.35 258.032 1415.35 257.808C1415.35 252.048 1411.54 249.104 1406.55 249.104C1401.59 249.104 1397.52 253.008 1397.52 257.808C1397.52 262.576 1401.59 266.48 1406.55 266.48C1410.19 266.48 1413.2 265.296 1415.06 262.192L1410.96 260.144C1409.59 261.616 1408.79 261.968 1406.96 261.968C1405.52 261.968 1403.41 261.104 1403.41 258.576H1415.31ZM1403.57 255.44C1403.67 253.936 1404.75 252.784 1406.71 252.784C1408.37 252.784 1409.55 253.712 1409.81 255.44H1403.57ZM1424 266H1429.67V238.48H1424V266ZM1439.58 266H1445.25V238.48H1439.58V266ZM1453.98 257.808C1453.98 262.864 1457.95 266.48 1463.87 266.48C1469.53 266.48 1473.66 262.864 1473.66 257.808C1473.66 252.688 1469.31 249.104 1463.87 249.104C1458.33 249.104 1453.98 252.688 1453.98 257.808ZM1460 257.808C1460 255.536 1461.69 253.936 1463.84 253.936C1465.95 253.936 1467.64 255.536 1467.64 257.808C1467.64 260.048 1466.04 261.648 1463.84 261.648C1461.53 261.648 1460 260.048 1460 257.808ZM1492.32 266L1496.1 257.52L1499.88 266H1503.72L1512.52 249.584H1505.99L1501.99 258.448L1498.05 249.584H1494.15L1490.21 258.448L1486.21 249.584H1479.68L1488.48 266H1492.32ZM1525.9 249.616H1525.97L1536.46 266H1542.48V239.6H1536.46V255.984H1536.4L1525.9 239.6H1519.89V266H1525.9V249.616ZM1546.65 239.6L1556.38 254.16V266H1562.39V254.16L1572.12 239.6H1564.89L1559.38 248.048L1553.88 239.6H1546.65ZM1588.87 244.208C1592.39 244.208 1592.61 247.44 1592.61 248.4C1592.61 253.264 1579.01 264.496 1579.01 264.496V266H1599.59V260.72H1589.8C1589.8 260.72 1599.11 254.576 1599.11 248.4C1599.11 245.072 1597.92 239.12 1588.87 239.12C1581.7 239.12 1579.14 246.8 1579.14 246.8L1584.16 249.232C1584.16 249.232 1585.99 244.208 1588.87 244.208ZM1608.32 252.816C1608.32 262.608 1613.41 266.48 1619.07 266.48C1624.74 266.48 1629.79 262.608 1629.79 252.816C1629.79 243.664 1624.74 239.12 1619.07 239.12C1613.41 239.12 1608.32 243.664 1608.32 252.816ZM1614.4 252.816C1614.4 247.504 1616.16 244.4 1619.07 244.4C1621.95 244.4 1623.71 247.472 1623.71 252.816C1623.71 258.512 1621.95 261.2 1619.07 261.2C1616.16 261.2 1614.4 258.512 1614.4 252.816ZM1637.68 250.416L1642.04 247.6V266H1648.05V239.6H1645.2L1637.68 244.464V250.416ZM1659.54 266H1666.97L1673.17 258.608C1675.93 254.864 1677.33 252.72 1677.33 248.08C1677.33 243.024 1672.73 239.12 1666.81 239.12C1662.04 239.12 1657.01 241.84 1657.01 248.08C1657.01 254.224 1661.81 257.328 1665.43 257.328C1666.65 257.328 1667.32 256.944 1667.32 256.944L1659.54 266ZM1671.09 248.08C1671.09 250.448 1669.3 252.176 1667.09 252.176C1664.82 252.176 1663.03 250.448 1663.03 248.08C1663.03 245.776 1664.76 244.08 1667.09 244.08C1669.43 244.08 1671.09 245.776 1671.09 248.08Z" fill="white"/>
</g>
<defs>
<clipPath id="clip0">
<rect width="1696" height="296" fill="white"/>
</clipPath>
</defs>
</svg>
