<?xml version="1.0" encoding="utf-8"?>
<!-- Generator: Adobe Illustrator 22.0.1, SVG Export Plug-In . SVG Version: 6.00 Build 0)  -->
<svg version="1.1" id="Layer_1" xmlns="http://www.w3.org/2000/svg" xmlns:xlink="http://www.w3.org/1999/xlink" x="0px" y="0px"
	 viewBox="0 0 376.7 120" style="enable-background:new 0 0 376.7 120;" xml:space="preserve">
<style type="text/css">
	.st0{fill:#FFFFFF;}
</style>
<g>
	<polygon class="st0" points="28.2,38.4 27.1,57.7 223.3,68.2 217.7,48.5 	"/>
	<g>
		<polygon class="st0" points="226.7,54 228.9,49.1 225.2,48.9 226.5,54 		"/>
		<polygon class="st0" points="260,50.8 252.9,50.4 250.2,60.2 		"/>
		<polygon class="st0" points="244.7,54 245.7,50 242.6,49.8 244.5,54 		"/>
		<polygon class="st0" points="235.5,50.9 227.7,68.4 240.8,69.1 242.9,67.1 235.6,50.9 		"/>
	</g>
	<polygon class="st0" points="269.6,51.3 269.8,51.5 250.8,69.6 341,74.4 342,55.1 	"/>
</g>
<g>
	<path d="M280.4,70.4c4.1-1,7.1-0.4,9.8,1.6c0.4,0.3,0.4,0.8,0,1.2l-3.2,4.3c-0.3,0.4-0.7,0.5-1,0.2c-1.5-1-3.5-1.3-5.5-0.8
		c-4.6,1.1-8,6-8,10.8s3.4,7.9,8,6.8c1.9-0.5,4-1.7,5.4-3.4c0.3-0.3,0.8-0.5,1.1-0.2l3.2,2.8c0.3,0.2,0.2,0.8,0,1.2
		c-2.8,3.5-6.3,5.7-9.9,6.6c-8.1,2-14.7-3.2-14.7-11.8C265.8,80.9,272.3,72.3,280.4,70.4z"/>
	<path d="M310,63.1c8.1-2,14.6,3.3,14.6,11.9s-6.5,17-14.6,19s-14.6-3.3-14.6-11.9C295.4,73.6,301.9,65.1,310,63.1z M310,87.2
		c4.5-1.1,8.1-5.9,8.1-10.5c0-4.7-3.7-7.7-8.1-6.7c-4.4,1.1-8.1,5.9-8.1,10.6C301.9,85.3,305.6,88.3,310,87.2z"/>
	<path d="M332.4,80.4c2.1-0.5,3.9,0.9,3.9,3.2c0,2.2-1.8,4.5-3.9,5s-3.8-0.9-3.8-3.1C328.6,83.2,330.4,80.9,332.4,80.4z"/>
</g>
<g>
	<rect x="229.5" y="65.1" transform="matrix(0.7229 -0.6909 0.6909 0.7229 23.1007 196.6838)" width="54.6" height="8.8"/>
</g>
<g>
	<path d="M48.2,45.7L37.3,29.3c-0.4-0.6,0-1.4,0.8-1.4h6.4c0.4,0,0.6,0.2,0.8,0.4l6.8,10.1l6.8-10.1c0.1-0.2,0.3-0.4,0.8-0.4h6.4
		c0.8,0,1.2,0.8,0.8,1.4l-11,16.4v15.7c0,0.5-0.4,0.9-0.9,0.9h-5.9c-0.5,0-0.9-0.4-0.9-0.9C48.2,61.4,48.2,45.7,48.2,45.7z"/>
	<path d="M75,41.1c0-0.5,0.4-0.9,0.9-0.9h20.4c0.5,0,0.9,0.4,0.9,0.9v5.4c0,0.5-0.4,0.9-0.9,0.9H82.7v6.1h11.2
		c0.5,0,0.9,0.4,0.9,0.9v5.4c0,0.5-0.4,0.9-0.9,0.9H82.7v6.6h13.6c0.5,0,0.9,0.4,0.9,0.9v5.4c0,0.5-0.4,0.9-0.9,0.9H76
		c-0.5,0-0.9-0.4-0.9-0.9L75,41.1L75,41.1z"/>
	<path d="M113.5,28.8c0-0.5,0.4-0.9,0.9-0.9h5.9c0.5,0,0.9,0.4,0.9,0.9v26.3h11.7c0.5,0,0.9,0.4,0.9,0.9v5.4c0,0.5-0.4,0.9-0.9,0.9
		h-18.5c-0.5,0-0.9-0.4-0.9-0.9C113.5,61.4,113.5,28.8,113.5,28.8z"/>
	<path d="M145.5,28.8c0-0.5,0.4-0.9,0.9-0.9h5.9c0.5,0,0.9,0.4,0.9,0.9v26.3h11.7c0.5,0,0.9,0.4,0.9,0.9v5.4c0,0.5-0.4,0.9-0.9,0.9
		h-18.5c-0.5,0-0.9-0.4-0.9-0.9L145.5,28.8L145.5,28.8z"/>
	<path d="M191.4,27.4c9.8,0,17.7,7.9,17.7,17.7s-7.9,17.6-17.7,17.6s-17.6-7.8-17.6-17.6C173.8,35.3,181.6,27.4,191.4,27.4z
		 M191.4,54.9c5.4,0,9.8-4.4,9.8-9.8s-4.4-9.9-9.8-9.9c-5.4,0-9.8,4.5-9.8,9.9C181.7,50.5,186.1,54.9,191.4,54.9z"/>
	<path d="M255.6,36.7h-5.8c-0.4,0-0.8,0.3-0.9,0.7L245.7,50l-1,4h-0.2l-1.8-4.2l-5.8-13.1c-0.1-0.3-0.4-0.5-0.8-0.5h-0.9
		c-0.4,0-0.7,0.2-0.8,0.5l-5.5,12.4l-2.2,4.9h-0.2l-1.3-5.1l-2.9-11.6c-0.1-0.3-0.5-0.7-0.9-0.7h-5.8c-0.7,0-1.1,0.5-0.9,1.2l3,10.7
		l5.5,19.6l0.8,2.7c0.1,0.4,0.5,0.7,0.9,0.7h0.8c0.3,0,0.7-0.2,0.8-0.5l1.2-2.6l7.8-17.5h0.1l7.2,16.2l7.3-7l2.7-9.8l3.5-12.5
		C256.6,37.2,256.2,36.7,255.6,36.7z"/>
</g>
</svg>
