<?xml version="1.0" encoding="utf-8"?>
<svg version="1.1" id="Layer_1" xmlns="http://www.w3.org/2000/svg" xmlns:xlink="http://www.w3.org/1999/xlink" x="0px" y="0px"
	 viewBox="0 0 525.5 272.1" xml:space="preserve">
<path fill="#000" d="M525,225.2c-0.3-1.4-0.5-2.8-1.1-4.4c-0.5-1.6,1-3,1.4-4.4c1.1-4-2.6-7.1-5.1-9.6c-2.4-2.4-5.3-4.4-8.6-5.6
	c-1.3-0.5-2.6-0.8-3.8-1c-2-1.4-4.1-2.7-6-3.9l-1.7-1c-2.6-1.5-5.2-3.1-7.9-4.6c-3.5-1.9-7-3.7-10.5-5.3l-0.6-0.3
	c-1.9-0.9-3.8-1.9-5.7-2.8c-1.1-0.6-2.3-1.1-3.4-1.7l-3.7-1.8l-14.2-7c-3.4-1.7-6.8-3.5-10.1-5.3c-1.7-0.9-3.4-1.8-5.1-2.7
	c-3.8-2-7.6-4.2-11.3-6.3l-2-1.2c-7.7-4.4-16.1-9.6-26.3-16.3l-1.5-1c-1.7-1.1-3.5-2.3-5.2-3.4l-2.2-1.5l-2.2-1.5l-0.2-0.2l-0.4-0.3
	c-1.7-1.1-3.3-1.9-4.8-2.6c-1.4-0.6-3-1-4.8-1c-1.2,0-2.2,0.1-2.9,0.2c-2.8,0.3-5.5,1.9-7.4,4.1c-4.8,5.6-1.2,13.7,2.3,19
	c4,5.8,9.8,9.3,15.6,13.1c7.2,5,14.7,9.6,22.2,14.2c0.5,0.3,0.9,0.6,1.4,0.8c1.4,0.9,2.8,1.7,4.3,2.6l5.7,3.2l1.4,0.8
	c-13.7-3.3-26.4-6.6-38.6-10.1c-14-4-28.7-8.8-45.1-14.7c-7.1-2.5-14.4-5.3-22.3-8.3c-1-0.4-2-0.8-3.1-1.2c-3.1-1.2-6-2.3-8.8-3.5
	c-2.1-0.9-4.2-1.9-6.3-2.8c-2.1-0.9-4.2-1.8-6.3-2.8l-15.8-7l-26.7-11.7l-3.7-1.6c-2-0.9-4-1.7-5.9-2.6c-12.5-6-25.3-12-37.6-17.9
	c-8-3.8-16-7.6-24-11.5c-1.5-0.7-2.9-1.5-4.4-2.2c-0.7-0.4-1.4-0.7-2-1.1l-6.7-3.4l-12.7-6.5c-3.7-1.9-7.5-3.8-11.2-5.7
	c-6.4-3.3-12.8-6.5-19.2-9.8c-0.5-0.3-1.2-0.6-1.8-1c-0.4-0.2-0.8-0.5-1.2-0.7l-8.2-4.8c-6.9-4-13.8-8-20.7-12
	c-8.7-5-17.3-10.1-26.8-15.7l-0.4-0.3c-8.4-5-17.2-10.1-25.4-15.5c-2.6-1.7-5.3-3.4-7.9-5.2c-2-1.3-4-2.7-6.1-4
	c-2.7-1.8-5.9-2.8-8.9-2.9C8.7-0.1,5.3,1.3,2.8,4c-0.9,1-1.6,2.1-2,3.4C0,9,0,10.6,0,11.4c0,0.3,0,0.6,0,0.9c0.3,3,1.3,5.6,2.2,7.6
	l0.2,0.6C3,21.8,3.6,23,4.4,24.2c2,3.2,4.8,6.2,8.1,8.6c0.6,0.5,1.3,0.9,1.9,1.4c1.5,1.1,3.1,2.3,4.7,3.4c2.2,1.5,4.3,2.9,6.5,4.4
	l2,1.4c1.4,0.9,2.8,1.8,4.1,2.6c0.5,0.3,1.1,0.6,1.6,1c1,0.6,2.1,1.3,3.1,1.9c3.2,2,6.4,4,9.7,5.9c6.4,3.7,12.8,7.4,19.2,11.1
	c6.6,3.8,13.3,7.7,19.9,11.3c2.4,1.4,4.8,2.7,7.2,4.1c1.8,1.1,3.7,2.1,5.5,3.2c5.9,3.4,11.9,6.9,18.2,10l10.8,5.4
	c9.6,4.8,19.1,9.6,28.7,14.4c6.4,3.2,12.7,6.3,19.2,9.4c10,4.7,20.1,9.3,30.1,14l11.1,5.2c1.7,0.8,3.3,1.6,5,2.3
	c5.3,2.5,10.8,5.1,16.3,7.4l8.8,3.8c10.3,4.4,20.6,8.8,30.9,13.3l5.2,2.2c4.3,1.8,8.5,3.7,12.8,5.5c6,2.6,12.1,4.9,18.3,7.2
	c15.3,5.8,30.6,11,45.4,15.7c14.5,4.6,29.7,8.8,46.5,13c18.3,4.5,33.1,7.8,46.7,10.4c6.7,1.3,13.3,2.3,19.6,3.2
	c-5.4,1.9-11.3,3.9-17,6.2c-6.3,2.6-12.5,5.6-18.2,8.5c-2.9,1.5-5,3.1-6.7,5.3c-1.6,2-2.8,4.4-3.8,7.4c-1,3.3-2.1,6.4-0.7,9.8
	c1.5,3.3,4.9,5.2,8.1,6.5c0.2,0.1,0.3,0.1,0.4,0.2c1.7,0.7,3.7,1.1,5.7,1.2c1.3,0,2.7-0.1,4.2-0.3c2-0.3,3.5-1.1,4.4-1.7
	c0.1-0.1,0.3-0.1,0.4-0.2c0.8-0.4,1.7-0.9,2.6-1.3c1.9-0.9,3.9-1.9,6-2.9c7.2-3.4,14.9-6.1,22.2-8.7c3.9-1.4,8-2.6,12-3.9
	c1.1-0.3,2.2-0.7,3.3-1c3-0.9,6.1-1.9,9.1-2.9c0.9-0.3,1.8-0.6,2.8-0.9c1.8-0.6,3.4-1.1,5-1.6c1.2-0.3,2.2-0.6,3.1-1
	c1.6-0.6,2.8-1.5,3.7-2.2c0.1-0.1,0.3-0.2,0.4-0.3c2.7-1.9,4.2-4.3,5.3-6.4l0.4-0.7l0.2-0.7l0.1-0.3l0,0c0.5-1.5,0.8-3,0.9-4.6
	c0.1-2,0-3.7-0.3-5.3L525,225.2z"/>
</svg>
