<?xml version="1.0" encoding="utf-8"?>
<!-- Generator: Adobe Illustrator 21.1.0, SVG Export Plug-In . SVG Version: 6.00 Build 0)  -->
<svg version="1.1" xmlns="http://www.w3.org/2000/svg" xmlns:xlink="http://www.w3.org/1999/xlink" x="0px" y="0px"
	 viewBox="0 0 98.1 50.5" style="enable-background:new 0 0 98.1 50.5;" xml:space="preserve">
<style type="text/css">
	.st0{fill:none;}
	.st1{fill:#003963;}
</style>
<g id="clearspace">
	<rect x="0" class="st0" width="97.9" height="50.4"/>
</g>
<g id="logo">
	<g>
		<g>
			<path class="st1" d="M17.9,41.2h-2.6l-0.5,1.5h-1.3l2.4-6.4h1.4l2.4,6.4h-1.3L17.9,41.2z M15.8,40h1.8l-0.9-2.4L15.8,40z"/>
			<path class="st1" d="M24.2,42.6v-6.4h1.3v6.4H24.2z"/>
			<path class="st1" d="M32.8,40.2h-0.6v2.5h-1.2v-6.4h2.5c1.2,0,2,0.9,2,2c0,0.9-0.5,1.6-1.4,1.8l1.4,2.6H34L32.8,40.2z M33.1,39.1
				c0.6,0,1-0.4,1-0.9c0-0.5-0.4-0.9-1-0.9h-1v1.8H33.1z"/>
			<path class="st1" d="M40.4,42.6v-6.4h1.2v5.2h2.8v1.2H40.4z"/>
			<path class="st1" d="M49.3,42.6v-6.4h1.3v6.4H49.3z"/>
			<path class="st1" d="M60.1,42.6l-2.9-4.5v4.5h-1.2v-6.4h1.5l2.6,4.2v-4.2h1.2v6.4H60.1z"/>
			<path class="st1" d="M66.7,42.6v-6.4h4v1.2H68v1.5h2.5V40H68v1.5h2.7v1.2H66.7z"/>
			<path class="st1" d="M79,38.1c-0.1-0.4-0.4-0.9-1.2-0.9c-0.6,0-1,0.4-1,0.8c0,0.4,0.2,0.6,0.7,0.7l0.9,0.2c1.2,0.2,1.8,1,1.8,1.9
				c0,1-0.8,2-2.3,2c-1.7,0-2.4-1.1-2.5-2l1.1-0.3c0.1,0.6,0.5,1.2,1.4,1.2c0.7,0,1-0.3,1-0.8c0-0.4-0.3-0.7-0.8-0.8l-0.9-0.2
				c-1-0.2-1.7-0.9-1.7-1.8c0-1.1,1-2,2.2-2c1.5,0,2.1,0.9,2.3,1.7L79,38.1z"/>
		</g>
		<g>
			<g id="Alaska">
				<path class="st1" d="M47.5,8.8l-9.2,15.5c-1,1.6-1.5,3.2-1.6,4.8H33c0.2-2,1-3.8,2.6-6.5l6.5-10.8c1.3-2.1,2.6-2.9,4.9-2.9H47.5
					z"/>
				<path class="st1" d="M46.8,25c-0.7,0.6-2,1.6-3.1,1.6c-0.8,0-0.8-0.7-0.3-1.7c2-3.7,4-5.7,6.5-5.7h0.5L46.8,25z M50.2,17.1
					c-4.7,0-7.6,2.7-10.1,8.7c-0.6,1.5-1,3.4,1.2,3.3c1.2,0,3.3-0.7,4.8-1.7c-0.1,0.5-0.2,1.2-0.1,1.6h3.3c0.1-1.3,0.6-2.9,1.7-4.8
					l4.1-6.9C53.4,17.2,51.8,17.1,50.2,17.1z"/>
				<path class="st1" d="M80.6,25c-0.7,0.6-2,1.6-3.1,1.6c-0.8,0-0.8-0.7-0.3-1.7c2-3.7,4-5.7,6.5-5.7h0.5L80.6,25z M84,17.1
					c-4.7,0-7.6,2.7-10.1,8.7c-0.6,1.5-1,3.4,1.2,3.3c1.2,0,3.3-0.7,4.8-1.7c-0.1,0.5-0.2,1.2-0.1,1.6H83c0.1-1.3,0.6-2.9,1.7-4.8
					l4.1-6.9C87.2,17.2,85.6,17.1,84,17.1z"/>
				<path class="st1" d="M73.3,32.3h-1.1c-1.4,0-2.6-0.9-3-2.3l-1.6-6.2L64.5,29H61l9.8-16.6c1.3-2.1,2.6-2.9,4.9-2.9h0.4l-6.5,11
					l4.9-3.4h3.9l-8.2,5.7l0,0L73.3,32.3z"/>
				<path class="st1" d="M41,7.8c-3.3,0-5,0.9-8.2,3.2l-11,7.9h-7c-2,0-3.7,0.1-4.9,1.3l-1.8,1.7c0,0,5.3-0.2,10.2-0.4L7.8,29h4.5
					L23,21.3c2.1-0.1,3.5-0.1,3.5-0.1c2.5-0.1,3.9-2.3,3.9-2.3h-4.1l8.7-6.3l-6.4,10.4c-1.4,2.4-2,4.1-2.3,5.9H30
					c0.1-1.6,0.7-3.2,1.6-4.8l8.8-14.7c0.6-1,1.1-1.8,1.1-1.8L41,7.8z"/>
				<path class="st1" d="M58.5,20.5c0,0.3,0.1,0.5,0.7,0.9l1,0.7c1.1,0.7,1.5,1.8,1.4,2.7c-0.4,2.5-2.2,4.4-6,4.4
					c-1.7,0-2.4-0.1-4.4-0.4l1.5-2.5c1.4,0.2,2.2,0.4,3.2,0.4c1.4,0,2-0.7,2.1-1.2c0-0.3-0.1-0.7-0.8-1.2l-0.8-0.6
					c-1.3-0.9-1.6-1.6-1.4-2.8c0.3-2.2,2.8-3.8,6.3-3.8c1.1,0,2.3,0.1,3.6,0.2l-1.4,2.4c-0.9-0.1-2.3-0.1-3.2-0.1
					C59.2,19.6,58.6,20,58.5,20.5z"/>
			</g>
			<path class="st1" d="M88.5,25.5c1,0,1.8,0.8,1.8,1.9c0,1-0.8,1.9-1.8,1.9c-1,0-1.8-0.8-1.8-1.9C86.6,26.3,87.4,25.5,88.5,25.5z
				 M88.5,28.9c0.8,0,1.4-0.6,1.4-1.5c0-0.8-0.6-1.5-1.4-1.5c-0.8,0-1.4,0.6-1.4,1.5C87,28.2,87.6,28.9,88.5,28.9z M88.2,28.4h-0.4
				v-2h0.7c0.4,0,0.7,0.3,0.7,0.6c0,0.3-0.2,0.5-0.4,0.6l0.5,0.8h-0.4l-0.4-0.8h-0.2V28.4z M88.5,27.3c0.2,0,0.4-0.1,0.4-0.3
				c0-0.2-0.1-0.3-0.4-0.3h-0.3v0.6H88.5z"/>
		</g>
	</g>
</g>
</svg>
